<?xml version="1.0" encoding="utf-8"?>
<!-- Generator: Adobe Illustrator 24.1.1, SVG Export Plug-In . SVG Version: 6.00 Build 0)  -->
<svg version="1.1" id="Layer_1" xmlns="http://www.w3.org/2000/svg" xmlns:xlink="http://www.w3.org/1999/xlink" x="0px" y="0px"
	 viewBox="0 0 512 512" style="enable-background:new 0 0 512 512;" xml:space="preserve">
<style type="text/css">
	.st0{fill:#231F20;}
</style>
<g>
	<path class="st0" d="M76.9,104.8v307.1l-33-33.3c-10-10-26.3-10-36.3,0s-10,26.3,0,36.3l76.8,76.8c9.9,10,26.1,10.1,36.2,0.1
		l0.1-0.1l76.8-76.8c10-9.9,10.1-26.1,0.1-36.2l-0.1-0.1c-9.9-10-26.1-10.1-36.2-0.1l-0.1,0.1l-33,33.3V104.8
		c-0.4-22,17.1-40.3,39.1-40.7h0h63.2c14.1,0,25.6-11.5,25.6-25.6s-11.5-25.6-25.6-25.6h-63.2C116.9,13.3,76.5,54.5,76.9,104.8z"/>
	<path class="st0" d="M314.6,97.1c-10,10-10,26.3,0,36.3c10,10,26.3,10,36.3,0l33-33.3v307.1c0.4,22-17.1,40.3-39.1,40.7h0h-63.2
		c-14.1,0-25.6,11.5-25.6,25.6c0,14.1,11.5,25.6,25.6,25.6h63.2c50.3-0.4,90.7-41.5,90.3-91.9V100.2l33,33.3
		c9.9,10,26.1,10.1,36.2,0.1l0.1-0.1c10-9.9,10.1-26.1,0.1-36.2l-0.1-0.1l-76.8-76.8c-9.9-10-26.1-10.1-36.2-0.1l-0.1,0.1
		L314.6,97.1z"/>
</g>
</svg>
